HIERARCHY
ROOT Hips
{
	OFFSET 0.00000 0.00000 0.00000
	CHANNELS 6 Xposition Yposition Zposition Zrotation Yrotation Xrotation 
	JOINT LHipJoint
	{
		OFFSET 0 0 0
		CHANNELS 3 Zrotation Yrotation Xrotation
		JOINT LeftUpLeg
		{
			OFFSET 1.76014 -1.80163 0.38499
			CHANNELS 3 Zrotation Yrotation Xrotation
			JOINT LeftLeg
			{
				OFFSET 2.46817 -6.78126 0.00000
				CHANNELS 3 Zrotation Yrotation Xrotation
				JOINT LeftFoot
				{
					OFFSET 2.79348 -7.67503 0.00000
					CHANNELS 3 Zrotation Yrotation Xrotation
					JOINT LeftToeBase
					{
						OFFSET 0.09421 -0.25885 1.91403
						CHANNELS 3 Zrotation Yrotation Xrotation
						End Site
						{
							OFFSET 0.00000 -0.00000 0.97975
						}
					}
				}
			}
		}
	}
	JOINT RHipJoint
	{
		OFFSET 0 0 0
		CHANNELS 3 Zrotation Yrotation Xrotation
		JOINT RightUpLeg
		{
			OFFSET -1.77926 -1.80163 0.38499
			CHANNELS 3 Zrotation Yrotation Xrotation
			JOINT RightLeg
			{
				OFFSET -2.51996 -6.92353 0.00000
				CHANNELS 3 Zrotation Yrotation Xrotation
				JOINT RightFoot
				{
					OFFSET -2.76109 -7.58603 0.00000
					CHANNELS 3 Zrotation Yrotation Xrotation
					JOINT RightToeBase
					{
						OFFSET -0.08067 -0.22163 1.86812
						CHANNELS 3 Zrotation Yrotation Xrotation
						End Site
						{
							OFFSET -0.00000 -0.00000 0.95558
						}
					}
				}
			}
		}
	}
	JOINT LowerBack
	{
		OFFSET 0 0 0
		CHANNELS 3 Zrotation Yrotation Xrotation
		JOINT Spine
		{
			OFFSET 0.05537 1.92033 -0.03713
			CHANNELS 3 Zrotation Yrotation Xrotation
			JOINT Spine1
			{
				OFFSET 0.04452 1.90073 0.10860
				CHANNELS 3 Zrotation Yrotation Xrotation
				JOINT Neck
				{
					OFFSET 0 0 0
					CHANNELS 3 Zrotation Yrotation Xrotation
					JOINT Neck1
					{
						OFFSET 0.00903 1.74649 0.02074
						CHANNELS 3 Zrotation Yrotation Xrotation
						JOINT Head
						{
							OFFSET -0.08608 1.67844 -0.12081
							CHANNELS 3 Zrotation Yrotation Xrotation
							End Site
							{
								OFFSET -0.03521 1.83380 -0.05059
							}
						}
					}
				}
				JOINT LeftShoulder
				{
					OFFSET 0 0 0
					CHANNELS 3 Zrotation Yrotation Xrotation
					JOINT LeftArm
					{
						OFFSET 3.28197 0.84325 -0.19106
						CHANNELS 3 Zrotation Yrotation Xrotation
						JOINT LeftForeArm
						{
							OFFSET 5.24318 -0.00000 -0.00000
							CHANNELS 3 Zrotation Yrotation Xrotation
							JOINT LeftHand
							{
								OFFSET 2.98999 -0.00000 0.00000
								CHANNELS 3 Zrotation Yrotation Xrotation
								JOINT LeftFingerBase
								{
									OFFSET 0 0 0
									CHANNELS 3 Zrotation Yrotation Xrotation
									JOINT LeftHandIndex1
									{
										OFFSET 0.72674 -0.00000 0.00000
										CHANNELS 3 Zrotation Yrotation Xrotation
										End Site
										{
											OFFSET 0.58592 -0.00000 0.00000
										}
									}
								}
								JOINT LThumb
								{
									OFFSET 0 0 0
									CHANNELS 3 Zrotation Yrotation Xrotation
									End Site
									{
										OFFSET 0.59487 -0.00000 0.59487
									}
								}
							}
						}
					}
				}
				JOINT RightShoulder
				{
					OFFSET 0 0 0
					CHANNELS 3 Zrotation Yrotation Xrotation
					JOINT RightArm
					{
						OFFSET -3.30963 0.78377 0.14264
						CHANNELS 3 Zrotation Yrotation Xrotation
						JOINT RightForeArm
						{
							OFFSET -5.37045 -0.00000 0.00000
							CHANNELS 3 Zrotation Yrotation Xrotation
							JOINT RightHand
							{
								OFFSET -2.92792 -0.00000 0.00000
								CHANNELS 3 Zrotation Yrotation Xrotation
								JOINT RightFingerBase
								{
									OFFSET 0 0 0
									CHANNELS 3 Zrotation Yrotation Xrotation
									JOINT RightHandIndex1
									{
										OFFSET -0.78450 -0.00000 0.00000
										CHANNELS 3 Zrotation Yrotation Xrotation
										End Site
										{
											OFFSET -0.63248 -0.00000 0.00000
										}
									}
								}
								JOINT RThumb
								{
									OFFSET 0 0 0
									CHANNELS 3 Zrotation Yrotation Xrotation
									End Site
									{
										OFFSET -0.64214 -0.00000 0.64214
									}
								}
							}
						}
					}
				}
			}
		}
	}
}
MOTION
Frames: 8
Frame Time: .0083333
1.1565 17.9952 0.2276 0 0 0 0 0 0 -21 0 0 0 0 0 0 0 0 0 0 0 0 0 0 21 0 0 0 0 0 0 0 0 0 0 0 0 0 0 0 0 0 0 0 0 0 0 -16 0 0 21 0 0 11 0 0 0 -8 0 0 0 0 0 0 0 0 0 0 0 0 0 0 0 0 0 0 0 0 8 0 0 0 0 0 0 0 0 0 0 0 0 0 0 0 0 0
1.1565 17.9952 0.2276 1.6628 -21.5233 11.5623 0.0000 0.0000 0.0000 -23.6078 -11.9546 -16.6253 1.8377 8.5196 24.3037 -1.4753 24.5433 -23.2659 0.0026 0.3319 0.9119 0.0000 0.0000 0.0000 9.6870 19.1144 -25.2146 -1.8761 -8.6031 24.5615 0.0015 -2.6601 -3.7022 -1.4025 7.4913 -21.1792 -0.9567 -3.3376 2.0957 4.4932 -4.6472 5.1503 5.1052 -2.4915 4.6221 -1.9608 -8.3418 12.6399 -2.1384 -11.3133 4.0198 0.1501 -5.6176 -0.8286 -0.0000 0.0000 0.0000 -86.1887 -40.9705 65.2884 153.3477 -37.8456 -110.7150 -0.0000 -0.0000 8.6685 -23.1696 29.3525 -11.8480 -7.1250 0.0000 -0.0000 -53.1831 51.6799 -11.4689 -0.0000 0.0000 0.0000 81.5229 8.9107 23.6863 -60.9910 56.5683 -35.1669 0.0000 0.0000 34.1600 14.1222 2.9699 0.7468 7.1250 -0.0000 -0.0000 29.7533 -26.2576 15.6093
1.1492 17.9948 0.2359 1.6821 -21.5077 11.5194 0.0000 0.0000 0.0000 -23.6311 -11.9715 -16.4836 1.8292 8.5008 24.2458 -1.4177 24.3995 -23.5503 0.0108 0.6713 1.8448 0.0000 0.0000 0.0000 9.7103 19.0506 -25.1893 -1.8862 -8.6250 24.6290 -0.0024 -2.5699 -3.8225 -1.3113 7.2535 -20.4687 -0.7834 -3.3219 1.9352 4.2741 -4.6167 5.0875 4.7699 -2.4597 4.6077 -1.7488 -8.3555 12.0993 -2.3155 -11.2753 4.9762 0.0055 -5.6136 -0.4543 -0.0000 0.0000 0.0000 -85.8796 -40.9606 65.1718 153.0999 -38.0838 -110.5626 -0.0000 -0.0000 8.5071 -23.0943 29.2320 -11.7632 -7.1250 0.0000 -0.0000 -53.0150 51.6097 -11.3008 -0.0000 0.0000 0.0000 81.9215 8.7685 23.5636 -61.0271 56.5775 -35.1970 0.0000 0.0000 34.2309 14.0872 3.1466 0.7892 7.1250 -0.0000 -0.0000 29.6848 -26.1018 15.6910
1.1407 17.9962 0.2455 1.6519 -21.5089 11.4538 0.0000 0.0000 0.0000 -23.6165 -11.9366 -16.3393 1.8272 8.4964 24.2324 -1.4420 24.4935 -23.5102 0.0067 0.5299 1.4560 0.0000 0.0000 0.0000 9.8102 19.0035 -25.0518 -1.8864 -8.6253 24.6300 -0.0045 -2.5308 -3.8941 -1.2162 6.9954 -19.7017 -0.8075 -3.4114 1.9360 4.2742 -4.7308 4.9656 4.7833 -2.5144 4.4918 -1.9880 -8.1907 11.4726 -2.5640 -11.0534 6.1339 -0.1070 -5.5304 0.0118 -0.0000 0.0000 0.0000 -85.7067 -40.8162 64.6694 152.8082 -38.3615 -110.3821 -0.0000 -0.0000 8.2944 -22.9911 29.1107 -11.6630 -7.1250 0.0000 -0.0000 -52.8250 51.5436 -11.1329 -0.0000 0.0000 0.0000 81.9567 8.6978 23.7766 -60.9354 56.5541 -35.1205 0.0000 0.0000 34.1778 14.0159 3.2855 0.8196 7.1250 -0.0000 -0.0000 29.6030 -25.9822 15.7326
1.1322 17.9971 0.2531 1.5810 -21.5215 11.4118 0.0000 0.0000 0.0000 -23.5465 -11.8677 -16.2517 1.8260 8.4938 24.2244 -1.4624 24.5699 -23.4704 0.0031 0.3624 0.9956 0.0000 0.0000 0.0000 9.9432 18.9921 -24.9432 -1.8897 -8.6324 24.6519 -0.0052 -2.5151 -3.9148 -1.1843 6.9064 -19.4382 -0.9121 -3.5097 1.9894 4.3766 -4.8583 4.8010 4.9536 -2.5810 4.3200 -2.3067 -7.9878 10.8229 -2.9603 -10.7763 7.4392 -0.2541 -5.4279 0.5138 0.0000 -0.0000 0.0000 -85.7047 -40.6147 64.1958 152.4791 -38.6714 -110.1771 -0.0000 -0.0000 8.1893 -22.9700 29.0905 -11.6442 -7.1250 0.0000 -0.0000 -52.7902 51.5332 -11.1050 0.0000 -0.0000 0.0000 81.8166 8.6447 24.0725 -60.7332 56.5022 -34.9518 0.0000 0.0000 34.0624 13.8994 3.3617 0.8314 7.1250 -0.0000 -0.0000 29.5083 -25.9217 15.7158
1.1232 17.9966 0.2587 1.5396 -21.5501 11.3351 0.0000 0.0000 0.0000 -23.5024 -11.7955 -16.1576 1.8285 8.4994 24.2415 -1.4710 24.5952 -23.4372 0.0024 0.3133 0.8610 0.0000 0.0000 0.0000 10.0518 18.9834 -24.8238 -1.8916 -8.6365 24.6648 -0.0060 -2.4820 -3.9187 -1.1929 6.9305 -19.5096 -1.0069 -3.5352 2.0535 4.4114 -4.8857 4.6413 5.0514 -2.5944 4.1305 -2.4446 -7.8607 10.0450 -3.3957 -10.5578 8.9984 -0.4483 -5.3614 1.1014 -0.0000 0.0000 0.0000 -85.7850 -40.4106 64.0075 152.1430 -38.9843 -109.9664 -0.0000 -0.0000 8.1155 -22.8911 29.1907 -11.6363 -7.1250 0.0000 -0.0000 -52.8203 51.6175 -11.2461 -0.0000 0.0000 0.0000 81.7494 8.5131 24.2378 -60.5095 56.4442 -34.7653 0.0000 0.0000 33.9298 13.6578 3.4110 0.8283 7.1250 -0.0000 -0.0000 29.3397 -25.8929 15.6207
1.1143 17.9951 0.2649 1.5539 -21.6133 11.2206 0.0000 0.0000 0.0000 -23.5280 -11.7172 -16.0439 1.8361 8.5160 24.2927 -1.4442 24.5312 -23.5753 0.0044 0.4271 1.1736 0.0000 0.0000 0.0000 10.1131 18.9485 -24.6984 -1.8944 -8.6426 24.6834 -0.0068 -2.4256 -3.8978 -1.2521 7.0940 -19.9942 -1.1542 -3.5616 2.1436 4.4457 -4.9147 4.4942 5.1797 -2.6108 3.9449 -2.7037 -7.7080 9.1204 -3.7893 -10.2969 10.7413 -0.6291 -5.2885 1.7998 0.0000 -0.0000 0.0000 -85.9031 -40.2293 63.7879 151.7453 -39.3496 -109.7153 -0.0000 -0.0000 8.0244 -22.7151 29.2066 -11.5449 -7.1250 0.0000 -0.0000 -52.6988 51.6603 -11.2709 0.0000 -0.0000 0.0000 81.6562 8.4075 24.4133 -60.3127 56.3927 -34.6014 0.0000 0.0000 33.8440 13.4979 3.4661 0.8314 7.1250 -0.0000 -0.0000 29.2223 -25.8537 15.5702
1.1053 17.9927 0.2691 1.5233 -21.6525 11.1360 0.0000 0.0000 0.0000 -23.5016 -11.6313 -15.9714 1.8471 8.5400 24.3667 -1.4381 24.5171 -23.6072 0.0033 0.3687 1.0132 0.0000 0.0000 0.0000 10.2177 18.9165 -24.5873 -1.8974 -8.6490 24.7034 -0.0080 -2.3792 -3.9110 -1.2682 7.1379 -20.1246 -1.2175 -3.5643 2.1926 4.4564 -4.9131 4.3734 5.2335 -2.6084 3.7972 -2.8398 -7.5732 8.0561 -4.2432 -10.0242 12.6397 -0.8657 -5.2168 2.5924 0.0000 -0.0000 0.0000 -85.9567 -40.1205 63.5755 151.3199 -39.7348 -109.4444 -0.0000 -0.0000 7.8474 -22.5857 29.0842 -11.4311 -7.1250 0.0000 -0.0000 -52.4874 51.5979 -11.1025 0.0000 -0.0000 0.0000 81.7296 8.3520 24.3922 -60.3218 56.3951 -34.6090 0.0000 0.0000 33.8508 13.5647 3.4849 0.8402 7.1250 -0.0000 -0.0000 29.2606 -25.8325 15.6143
